<svg height="100" viewBox="0 0 183 100" width="183" xmlns="http://www.w3.org/2000/svg" xmlns:xlink="http://www.w3.org/1999/xlink"><filter id="a" height="93.3%" width="89.1%" x="5.4%" y="6.7%"><feGaussianBlur in="SourceGraphic" stdDeviation="0"/></filter><g fill="none" fill-rule="evenodd"><rect fill="#c3acff" height="96" rx="8" stroke="#9000ff" stroke-width="3" width="179" x="1.745568" y="2.254432"/><g transform="translate(18.245568 16.754432)"><rect fill="#9000ff" height="34" rx="8" width="65"/><path d="m5.94428748 12.0725005c2.72468947 0 4.60802202 1.7972478 5.64999772 5.3917435 1.2392364 3.7388377 3.0736658 5.6082565 5.5032883 5.6082565 2.4296224 0 4.2786666-1.8694188 5.5471325-5.6082565.897503-3.5944957 2.7277167-5.3917435 5.4906409-5.3917435 2.7629243 0 4.5029201 1.7972478 5.2199875 5.3917435.5338603 3.7388377 2.3507493 5.6082565 5.4506669 5.6082565 3.0999177 0 4.9998071-1.8694188 5.699668-5.6082565 1.2001074-3.5944957 3.031321-5.3917435 5.4936408-5.3917435s4.2763567 1.8333333 5.4421106 5.5c1.5264439 3.6666667 3.0546906 5.5 4.5847402 5.5" stroke="#cdff88" stroke-width="3"/></g><rect fill="#9000ff" height="63" rx="8" stroke="#9000ff" stroke-width="4" width="70" x="96.245568" y="18.754432"/><rect fill="#cdff88" height="12" rx="5.5" width="11" x="102.245568" y="63.754432"/><rect fill="#c3acff" height="12" rx="5.5" width="11" x="118.245568" y="63.754432"/><rect fill="#cdff88" height="12" rx="5.5" width="11" x="134.245568" y="63.754432"/><rect fill="#c3acff" height="12" rx="5.5" width="11" x="150.245568" y="63.754432"/><rect fill="#c3acff" height="12" rx="5.5" width="11" x="102.245568" y="43.754432"/><rect fill="#cdff88" height="12" rx="5.5" width="11" x="118.245568" y="43.754432"/><rect fill="#c3acff" height="12" rx="5.5" width="11" x="134.245568" y="43.754432"/><rect fill="#cdff88" height="12" rx="5.5" width="11" x="150.245568" y="43.754432"/><g fill="#c3acff"><rect height="12" rx="5.5" width="11" x="102.245568" y="23.754432"/><rect height="12" rx="5.5" width="11" x="118.245568" y="23.754432"/><rect height="12" rx="5.5" width="11" x="134.245568" y="23.754432"/></g><rect fill="#cdff88" height="12" rx="5.5" width="11" x="150.245568" y="23.754432"/><g transform="translate(27.491137 64.508863)"><path d="m6.83205029 3.24807544 6.13148291 9.19722436c.3063525.4595287.1821786 1.080398-.2773501 1.3867505-.1642675.1095117-.3572752.1679497-.5547002.1679497h-12.26296581c-.55228475 0-1-.4477153-1-1 0-.197425.05843803-.3904327.16794971-.5547002l6.13148291-9.19722436c.30635245-.45952869.9272218-.58370256 1.38675049-.2773501.10985228.07323486.20411524.16749781.27735009.2773501z" fill="#9000ff" filter="url(#a)" transform="matrix(0 1 -1 0 14 2)"/><circle cx="43" cy="8" fill="#cdff88" r="7"/><g fill="#9000ff"><rect height="14" rx="1.5" width="3" x="20.754432" y="1.245568"/><rect height="14" rx="1.5" width="3" x="24.754432" y="1.245568"/></g></g></g></svg>