<?xml version="1.0" encoding="UTF-8"?>
<svg width="182px" height="97px" viewBox="0 0 182 97" version="1.1" xmlns="http://www.w3.org/2000/svg" xmlns:xlink="http://www.w3.org/1999/xlink">
    <title>hookup</title>
    <g id="Page-1" stroke="none" stroke-width="1" fill="none" fill-rule="evenodd">
        <g id="hookup" transform="translate(0.000000, -3.000000)">
            <rect id="Modular-Body" stroke="#9000FF" stroke-width="3" fill="#C3ACFF" x="1.5" y="51.5" width="179" height="47" rx="8"></rect>
            <g id="Patch-Bay" transform="translate(17.000000, 64.000000)">
                <rect id="Rectangle-Copy-43" fill="#9000FF" x="0" y="0" width="7" height="7" rx="3.5"></rect>
                <rect id="Rectangle-Copy-52" fill="#9000FF" x="13" y="0" width="7" height="7" rx="3.5"></rect>
                <rect id="Rectangle-Copy-53" fill="#9000FF" x="25" y="0" width="7" height="7" rx="3.5"></rect>
                <rect id="Rectangle-Copy-56" fill="#9000FF" x="38" y="0" width="7" height="7" rx="3.5"></rect>
                <rect id="Rectangle-Copy-62" fill="#9000FF" x="0" y="13" width="7" height="7" rx="3.5"></rect>
                <rect id="Rectangle-Copy-61" fill="#9000FF" x="13" y="13" width="7" height="7" rx="3.5"></rect>
                <rect id="Rectangle-Copy-63" fill="#CDFF88" x="14" y="14" width="5" height="5" rx="2.5"></rect>
                <rect id="Rectangle-Copy-60" fill="#9000FF" x="25" y="13" width="7" height="7" rx="3.5"></rect>
                <rect id="Rectangle-Copy-59" fill="#9000FF" x="38" y="13" width="7" height="7" rx="3.5"></rect>
                <rect id="Rectangle-Copy-64" fill="#CDFF88" x="39" y="14" width="5" height="5" rx="2.5"></rect>
                <path d="M16,18 C20.1666667,22.6666667 24.3333333,25 28.5,25 C32.6666667,25 36.8333333,22.6666667 41,18" id="Path-2" stroke="#CDFF88" stroke-width="2"></path>
            </g>
            <g id="Cable-Left" transform="translate(37.000000, 4.309046)">
                <path d="M5,37.3577221 L5,35.6909544 C4.79564369,29.0075385 6.46231035,24.0075385 10,20.6909544 C15.3065345,15.7160784 21.8218723,38.5936646 26.2455683,7.24248143 C26.549856,5.08596339 26.7393151,2.6574897 26.8305496,0" id="Keyboard-Wire-background" stroke="#C3ACFF" stroke-width="4"></path>
                <path d="M5,35.6909544 C4.79564369,29.0075385 6.46231035,24.0075385 10,20.6909544 C15.3065345,15.7160784 21.8218723,38.5936646 26.2455683,7.24248143 C26.549856,5.08596339 26.7393151,2.6574897 26.8305496,0" id="Keyboard-Wire" stroke="#CDFF88" stroke-width="2"></path>
                <g id="Plug" transform="translate(0.000000, 35.690954)">
                    <path d="M5,0 C7.209139,-4.05812251e-16 9,1.790861 9,4 L9,9 L9,9 L1,9 L1,4 C1,1.790861 2.790861,4.05812251e-16 5,0 Z" id="Rectangle" fill="#9000FF"></path>
                    <rect id="Rectangle" fill="#CDFF88" x="0" y="9" width="10" height="1"></rect>
                </g>
            </g>
            <g id="Knobs" transform="translate(89.000000, 65.000000)">
                <rect id="Rectangle" fill="#9000FF" x="0" y="1" width="17" height="17" rx="8"></rect>
                <line x1="8" y1="7.5" x2="8" y2="0.5" id="Line-2" stroke="#CDFF88" stroke-width="2" stroke-linecap="square"></line>
                <rect id="Rectangle-Copy-28" fill="#9000FF" x="32" y="1" width="17" height="17" rx="8"></rect>
                <line x1="40" y1="9" x2="47" y2="4" id="Line-2-Copy" stroke="#CDFF88" stroke-width="2" stroke-linecap="square"></line>
                <rect id="Rectangle-Copy-29" fill="#9000FF" x="63" y="1" width="17" height="17" rx="8"></rect>
                <line x1="71" y1="10" x2="66" y2="17" id="Line-2-Copy-2" stroke="#CDFF88" stroke-width="2" stroke-linecap="square"></line>
            </g>
            <g id="Cable-Right" transform="translate(108.145167, 3.969496)">
                <path d="M-3.37507799e-14,1.0658141e-14 C0.231574467,14.733246 0.519753114,23.8225012 0.864535943,27.2677656 C1.01302252,28.7515272 2.38720962,36.0305037 7.65054458,36.0305037 C11.6730976,36.0305037 10.5893949,20.0762505 15.8189578,20.0762505 C19.305333,20.0762505 20.9814749,25.4095838 20.8473836,36.0762505 L20.8548331,37.7879729" id="Synth-Wire-background" stroke="#C3ACFF" stroke-width="4"></path>
                <path d="M0,0 C0.231574467,14.733246 0.519753114,23.8225012 0.864535943,27.2677656 C1.01302252,28.7515272 2.38720962,36.0305037 7.65054458,36.0305037 C11.6730976,36.0305037 10.5893949,20.0762505 15.8189578,20.0762505 C19.305333,20.0762505 20.9814749,25.4095838 20.8473836,36.0762505" id="Synth-Wire" stroke="#CDFF88" stroke-width="2"></path>
                <g id="Plug-Copy-3" transform="translate(15.749570, 36.076250)">
                    <path d="M5,0 C7.209139,-4.05812251e-16 9,1.790861 9,4 L9,9 L9,9 L1,9 L1,4 C1,1.790861 2.790861,4.05812251e-16 5,0 Z" id="Rectangle" fill="#9000FF"></path>
                    <rect id="Rectangle" fill="#CDFF88" x="0" y="9" width="10" height="1"></rect>
                </g>
            </g>
        </g>
    </g>
</svg>