<svg height="97" viewBox="0 0 182 97" width="182" xmlns="http://www.w3.org/2000/svg"><g fill="none" fill-rule="evenodd"><rect fill="#c3acff" height="47" rx="8" stroke="#9000ff" stroke-width="3" width="179" x="1.5" y="48.5"/><g transform="translate(17 61)"><g fill="#9000ff"><rect height="7" rx="3.5" width="7"/><rect height="7" rx="3.5" width="7" x="13"/><rect height="7" rx="3.5" width="7" x="25"/><rect height="7" rx="3.5" width="7" x="38"/><rect height="7" rx="3.5" width="7" y="13"/><rect height="7" rx="3.5" width="7" x="13" y="13"/></g><rect fill="#cdff88" height="5" rx="2.5" width="5" x="14" y="14"/><rect fill="#9000ff" height="7" rx="3.5" width="7" x="25" y="13"/><rect fill="#9000ff" height="7" rx="3.5" width="7" x="38" y="13"/><rect fill="#cdff88" height="5" rx="2.5" width="5" x="39" y="14"/><path d="m16 18c4.1666667 4.6666667 8.3333333 7 12.5 7s8.3333333-2.3333333 12.5-7" stroke="#cdff88" stroke-width="2"/></g><g transform="translate(37 1.309046)"><path d="m5 37.3577221v-1.6667677c-.20435631-6.6834159 1.46231035-11.6834159 5-15 5.3065345-4.974876 11.8218723 17.9027102 16.2455683-13.44847297.3042877-2.15651804.4937468-4.58499173.5849813-7.24248143" stroke="#c3acff" stroke-width="4"/><path d="m5 35.6909544c-.20435631-6.6834159 1.46231035-11.6834159 5-15 5.3065345-4.974876 11.8218723 17.9027102 16.2455683-13.44847297.3042877-2.15651804.4937468-4.58499173.5849813-7.24248143" stroke="#cdff88" stroke-width="2"/><g transform="translate(0 35.690954)"><path d="m5 0c2.209139 0 4 1.790861 4 4v5h-8v-5c0-2.209139 1.790861-4 4-4z" fill="#9000ff"/><path d="m0 9h10v1h-10z" fill="#cdff88"/></g></g><rect fill="#9000ff" height="17" rx="8" width="17" x="89" y="63"/><path d="m97 69.5v-7" stroke="#cdff88" stroke-linecap="square" stroke-width="2"/><rect fill="#9000ff" height="17" rx="8" width="17" x="121" y="63"/><path d="m129 71 7-5" stroke="#cdff88" stroke-linecap="square" stroke-width="2"/><rect fill="#9000ff" height="17" rx="8" width="17" x="152" y="63"/><path d="m160 72-5 7" stroke="#cdff88" stroke-linecap="square" stroke-width="2"/><g transform="translate(108.145167 .969496)"><path d="m0 0c.23157447 14.733246.51975311 23.8225012.86453594 27.2677656.14848658 1.4837616 1.52267368 8.7627381 6.78600864 8.7627381 4.02255302 0 2.93885032-15.9542532 8.16841322-15.9542532 3.4863752 0 5.1625171 5.3333333 5.0284258 16l.0074495 1.7117224" stroke="#c3acff" stroke-width="4"/><path d="m0 0c.23157447 14.733246.51975311 23.8225012.86453594 27.2677656.14848658 1.4837616 1.52267368 8.7627381 6.78600864 8.7627381 4.02255302 0 2.93885032-15.9542532 8.16841322-15.9542532 3.4863752 0 5.1625171 5.3333333 5.0284258 16" stroke="#cdff88" stroke-width="2"/><g transform="translate(15.74957 36.07625)"><path d="m5 0c2.209139 0 4 1.790861 4 4v5h-8v-5c0-2.209139 1.790861-4 4-4z" fill="#9000ff"/><path d="m0 9h10v1h-10z" fill="#cdff88"/></g></g></g></svg>