<svg height="104" viewBox="0 0 152 104" width="152" xmlns="http://www.w3.org/2000/svg"><g fill="none" fill-rule="evenodd"><g fill="#c3acff"><rect height="70.680412" rx="20" stroke="#9000ff" stroke-width="2" width="91" x="1" y="1"/><path d="m15.7499736 74.5861602 11.1734251 10.7948271c.7943911.7674741 1.202497 1.7842821 1.2201365 2.8078194s-.3551873 2.0538038-1.1226614 2.8481949c-.7537185.780153-1.7919729 1.2207304-2.8767447 1.2207304h-8.6158785z" stroke="#9000ff" stroke-width="2" transform="matrix(0 1 -1 0 108.273357 57.242107)"/><path d="m16.7239062 69.5154639 12.6015993 12.1166349c1.5924385 1.5311546 1.642119 4.0633272.1109644 5.6557658-.7541511.7843358-1.7952813 1.2275993-2.8833651 1.2275993h-10.0687298z" transform="matrix(0 1 -1 0 105.499839 52.531089)"/></g><g fill="#9000ff"><rect height="6.783505" rx="3.391753" width="9.6875" x="9.6875" y="10.659794"/><rect height="6.783505" rx="3.391753" width="59.578125" x="24.21875" y="10.659794"/><rect height="6.783505" rx="3.391753" width="59.578125" x="9.6875" y="34.886598"/><rect height="6.783505" rx="3.391753" width="38.265625" x="9.6875" y="47"/><rect height="6.783505" rx="3.391753" width="32.453125" x="53.28125" y="47"/><rect height="6.783505" rx="3.391753" width="23.734375" x="9.6875" y="22.773196"/><rect height="6.783505" rx="3.391753" width="17.4375" x="39.234375" y="22.773196"/><rect height="6.783505" rx="3.391753" width="17.4375" x="62" y="22.773196"/><path d="m19.5 0h36c10.7695526 0 19.5 8.73044738 19.5 19.5v17.5c0 1.1045695-.8954305 2-2 2h-53.5c-10.76955262 0-19.5-8.7304474-19.5-19.5 0-10.76955262 8.73044738-19.5 19.5-19.5z" transform="matrix(-1 0 0 1 150 33)"/></g><rect fill="#cdff88" height="54.058442" rx="20" transform="matrix(-1 0 0 1 154 33)" width="75" x="2"/><path d="m40.8462449 53.9741691 15.4166736 15.0452839c1.1857685 1.1572032 1.2089252 3.056557.0517221 4.2423254-.5645657.5785019-1.3386929.9046984-2.1470238.9046984h-13.5721798z" fill="#cdff88" transform="matrix(0 1 1 0 61.995893 46.004107)"/><g fill="#9000ff"><rect height="6.818182" rx="3.409091" width="27.884615" x="84.692308" y="43.227273"/><rect height="6.818182" rx="3.409091" width="52.884615" x="92.384616" y="54.428572"/><rect height="6.818182" rx="3.409091" width="25" x="120.269231" y="65.62987"/><rect height="6.818182" rx="3.409091" width="27.884615" x="86.615385" y="65.62987"/><rect height="6.818182" rx="3.409091" width="13.942308" x="131.326923" y="43.227273"/><rect height="6.818182" rx="3.409091" width="8.173077" x="117.865385" y="43.227273"/></g></g></svg>